<svg xmlns="http://www.w3.org/2000/svg" viewBox="0 0 131.54 132.31"><defs><style>.cls-1{fill:none;stroke:#b3b3b3;stroke-miterlimit:10;stroke-width:2px;}</style></defs><title>Recurso 3</title><g id="Capa_2" data-name="Capa 2"><g id="Capa_1-2" data-name="Capa 1"><path class="cls-1" d="M58.19,8.67V13C25.35,16.33,21.36,42.66,18.05,66c-2.33,15.66-4.32,32-14.93,43a8.42,8.42,0,0,0-1.66,8.33,8,8,0,0,0,7,4.66H55.87a9.58,9.58,0,0,0,9.62,9.34c5,0,9.29-4.34,9.63-9.34h47.77a7.66,7.66,0,0,0,7-4.66A7.27,7.27,0,0,0,128.2,109c-10.61-11-12.94-27.33-14.93-43-3.32-23.33-7-49.66-39.81-53V8.67a7.64,7.64,0,1,0-15.27,0ZM65.49,28C91.37,28,94.36,41,98,68c1.66,12.66,3.65,26.32,9.95,38.65H23.36c6.3-12.33,8.29-26,10-38.65C37,41,40,28,65.49,28Z"/></g></g></svg>