<svg xmlns="http://www.w3.org/2000/svg" viewBox="0 0 131 131.87"><defs><style>.cls-1{fill:none;stroke:#999;stroke-miterlimit:10;}</style></defs><title>Recurso 5</title><g id="Capa_2" data-name="Capa 2"><g id="Capa_1-2" data-name="Capa 1"><path class="cls-1" d="M1.85,131.3a1.82,1.82,0,0,0,2.23-1.45c3.74-15.71,19-19.79,28.07-22.23A32.38,32.38,0,0,0,37.4,106c10.37-5.06,13.74-13.19,14.76-19.13a2.22,2.22,0,0,0-.6-1.94c-5.4-5.24-10-13.1-12.83-22.15a2.13,2.13,0,0,0-.37-.7c-3.81-4.65-6-9.56-6-13.47a5.42,5.42,0,0,1,2.5-5,2.08,2.08,0,0,0,.88-1.67c.81-20.83,14-37.24,30.19-37.34l.39,0c16.26.25,29.37,17,29.84,38.13a2.15,2.15,0,0,0,.65,1.51,5.58,5.58,0,0,1,1.67,4.33c0,3.27-1.55,7.3-4.37,11.33a2.26,2.26,0,0,0-.3.65c-2.91,10.37-8.14,19.53-14.33,25.13a2.23,2.23,0,0,0-.65,2c1,5.93,4.39,14.07,14.76,19.14a32.42,32.42,0,0,0,5.54,1.65c9,2.19,24.09,5.86,27.78,21.39a1.87,1.87,0,0,0,1.76,1.52,2,2,0,0,0,.47-.07,2.1,2.1,0,0,0,1.29-2.51c-4.28-17.94-21.36-22.1-30.53-24.34a30.27,30.27,0,0,1-4.86-1.4c-6.76-3.31-10.93-8.34-12.4-15C88.93,82,94.18,72.63,97.19,62.14c3.19-4.66,4.94-9.47,4.94-13.57a10,10,0,0,0-2.34-6.8C98.92,18.85,84.38.8,66.33.51h-.55C48.06.61,33.45,18.18,32.18,40.71a9.67,9.67,0,0,0-3.44,7.87c0,4.83,2.44,10.62,6.7,15.93,2.94,9.09,7.5,17.08,12.93,22.67-1.47,6.68-5.64,11.73-12.42,15a32.82,32.82,0,0,1-4.64,1.44C22.06,106.13,4.87,110.73.56,128.8A2.08,2.08,0,0,0,1.85,131.3Z"/></g></g></svg>